<mxfile host="app.diagrams.net" agent="Mozilla/5.0 (Windows NT 10.0; Win64; x64) AppleWebKit/537.36 (KHTML, like Gecko) Chrome/141.0.0.0 Safari/537.36" version="28.2.8">
  <diagram name="Page-1" id="K36HcLxeXxF1V2xAlrT7">
    <mxGraphModel dx="1042" dy="562" grid="1" gridSize="10" guides="1" tooltips="1" connect="1" arrows="1" fold="1" page="1" pageScale="1" pageWidth="850" pageHeight="1100" math="0" shadow="0">
      <root>
        <mxCell id="0" />
        <mxCell id="1" parent="0" />
        <mxCell id="r08MEwhrAs-lnxYzfDme-1" value="&lt;font style=&quot;font-size: 33px;&quot;&gt;High Level Architecture&lt;/font&gt;" style="text;html=1;whiteSpace=wrap;strokeColor=none;fillColor=none;align=center;verticalAlign=middle;rounded=0;" parent="1" vertex="1">
          <mxGeometry x="20" y="20" width="400" height="80" as="geometry" />
        </mxCell>
        <mxCell id="Gq1TnJl-iR2hiTpKuQ-t-3" value="" style="rounded=1;whiteSpace=wrap;html=1;rotation=-90;" vertex="1" parent="1">
          <mxGeometry x="-110" y="310" width="380" height="130" as="geometry" />
        </mxCell>
        <mxCell id="Gq1TnJl-iR2hiTpKuQ-t-5" value="&lt;font style=&quot;font-size: 18px;&quot;&gt;Sources&lt;/font&gt;" style="rounded=1;whiteSpace=wrap;html=1;strokeColor=none;" vertex="1" parent="1">
          <mxGeometry x="35" y="130" width="90" height="40" as="geometry" />
        </mxCell>
        <mxCell id="Gq1TnJl-iR2hiTpKuQ-t-7" value="" style="rounded=1;whiteSpace=wrap;html=1;" vertex="1" parent="1">
          <mxGeometry x="170" y="170" width="490" height="390" as="geometry" />
        </mxCell>
        <mxCell id="Gq1TnJl-iR2hiTpKuQ-t-8" value="&lt;font style=&quot;font-size: 18px;&quot;&gt;Data Warehouse&lt;/font&gt;" style="rounded=1;whiteSpace=wrap;html=1;strokeColor=none;" vertex="1" parent="1">
          <mxGeometry x="335" y="130" width="160" height="40" as="geometry" />
        </mxCell>
        <mxCell id="Gq1TnJl-iR2hiTpKuQ-t-11" value="" style="rounded=1;whiteSpace=wrap;html=1;rotation=-90;" vertex="1" parent="1">
          <mxGeometry x="560" y="310" width="380" height="130" as="geometry" />
        </mxCell>
        <mxCell id="Gq1TnJl-iR2hiTpKuQ-t-12" value="&lt;font style=&quot;font-size: 18px;&quot;&gt;Consumers&lt;/font&gt;" style="rounded=1;whiteSpace=wrap;html=1;strokeColor=none;" vertex="1" parent="1">
          <mxGeometry x="697.5" y="130" width="105" height="40" as="geometry" />
        </mxCell>
        <mxCell id="Gq1TnJl-iR2hiTpKuQ-t-13" value="Bronze Layer" style="rounded=0;whiteSpace=wrap;html=1;fillColor=#ffcd28;strokeColor=#d79b00;gradientColor=#ffa500;" vertex="1" parent="1">
          <mxGeometry x="215" y="210" width="120" height="20" as="geometry" />
        </mxCell>
        <mxCell id="Gq1TnJl-iR2hiTpKuQ-t-18" value="" style="rounded=0;whiteSpace=wrap;html=1;" vertex="1" parent="1">
          <mxGeometry x="215" y="250" width="120" height="270" as="geometry" />
        </mxCell>
        <mxCell id="Gq1TnJl-iR2hiTpKuQ-t-19" value="Silver Layer" style="rounded=0;whiteSpace=wrap;html=1;fillColor=#d0cee2;strokeColor=#56517e;" vertex="1" parent="1">
          <mxGeometry x="365" y="210" width="120" height="20" as="geometry" />
        </mxCell>
        <mxCell id="Gq1TnJl-iR2hiTpKuQ-t-20" value="" style="rounded=0;whiteSpace=wrap;html=1;" vertex="1" parent="1">
          <mxGeometry x="365" y="250" width="120" height="270" as="geometry" />
        </mxCell>
        <mxCell id="Gq1TnJl-iR2hiTpKuQ-t-21" value="Gold Layer" style="rounded=0;whiteSpace=wrap;html=1;fillColor=#e3c800;strokeColor=#B09500;fontColor=#000000;" vertex="1" parent="1">
          <mxGeometry x="510" y="210" width="120" height="20" as="geometry" />
        </mxCell>
        <mxCell id="Gq1TnJl-iR2hiTpKuQ-t-22" value="" style="rounded=0;whiteSpace=wrap;html=1;" vertex="1" parent="1">
          <mxGeometry x="510" y="250" width="120" height="270" as="geometry" />
        </mxCell>
      </root>
    </mxGraphModel>
  </diagram>
</mxfile>
